<svg width="50" height="50" viewBox="0 0 50 50" fill="none" xmlns="http://www.w3.org/2000/svg">
<path d="M8.33317 20.8333V37.4999H41.6665V20.8333L24.9998 27.0833L8.33317 20.8333ZM8.33317 12.4999V16.6666L24.9998 22.9166L41.6665 16.6666V12.4999H8.33317ZM8.33317 8.33325H41.6665C42.7716 8.33325 43.8314 8.77224 44.6128 9.55364C45.3942 10.335 45.8332 11.3948 45.8332 12.4999V37.4999C45.8332 38.605 45.3942 39.6648 44.6128 40.4462C43.8314 41.2276 42.7716 41.6666 41.6665 41.6666H8.33317C7.2281 41.6666 6.16829 41.2276 5.38689 40.4462C4.60549 39.6648 4.1665 38.605 4.1665 37.4999V12.4999C4.1665 11.3948 4.60549 10.335 5.38689 9.55364C6.16829 8.77224 7.2281 8.33325 8.33317 8.33325Z" fill="#FFFDFD"/>
</svg>
