<svg width="78" height="78" viewBox="0 0 78 78" fill="none" xmlns="http://www.w3.org/2000/svg">
<path d="M38.6787 9.42847C22.5501 9.42847 9.42871 22.5498 9.42871 38.6785C9.42871 54.8071 22.5501 67.9285 38.6787 67.9285C54.8073 67.9285 67.9287 54.8071 67.9287 38.6785C67.9287 22.5498 54.8073 9.42847 38.6787 9.42847ZM52.5892 52.589C52.1321 53.0457 51.5124 53.3023 50.8662 53.3023C50.22 53.3023 49.6003 53.0457 49.1432 52.589L42.6168 46.0641C39.8596 47.9614 36.4929 48.7598 33.1774 48.3026C29.8619 47.8455 26.8369 46.1658 24.696 43.5932C22.5551 41.0205 21.4529 37.7407 21.6057 34.3973C21.7586 31.0539 23.1553 27.8883 25.5219 25.5217C27.8885 23.1551 31.0541 21.7583 34.3976 21.6055C37.741 21.4527 41.0208 22.5549 43.5934 24.6957C46.166 26.8366 47.8457 29.8616 48.3029 33.1772C48.76 36.4927 47.9616 39.8594 46.0643 42.6166L52.5892 49.143C53.046 49.6 53.3026 50.2198 53.3026 50.866C53.3026 51.5121 53.046 52.1319 52.5892 52.589Z" fill="white"/>
<path d="M35.3438 43.875C40.0554 43.875 43.875 40.0554 43.875 35.3438C43.875 30.6321 40.0554 26.8125 35.3438 26.8125C30.6321 26.8125 26.8125 30.6321 26.8125 35.3438C26.8125 40.0554 30.6321 43.875 35.3438 43.875Z" fill="white"/>
</svg>
